<svg width="724" height="200" viewBox="0 0 724 200" fill="none" xmlns="http://www.w3.org/2000/svg">
<path d="M13.8212 199.986C11.235 199.986 9.01828 199.493 7.17099 198.631C5.3237 197.646 3.84587 196.414 2.86064 194.813C1.87542 193.089 1.38281 191.242 1.38281 189.025C1.38281 186.193 1.99858 183.607 3.35326 181.39C4.58478 179.05 6.43207 177.326 8.77197 175.971C11.235 174.616 13.9444 174.001 16.9001 174.001C19.24 174.001 21.2104 174.37 22.9345 175.109C24.6587 175.971 25.8902 177.079 26.7523 178.434L22.5651 181.882C21.2104 179.912 19.24 178.927 16.5306 178.927C14.6833 178.927 13.0823 179.419 11.7276 180.281C10.2498 181.143 9.14143 182.252 8.40252 183.73C7.6636 185.208 7.29414 186.932 7.29414 188.656C7.29414 190.626 7.90991 192.227 9.14143 193.336C10.373 194.444 12.0971 195.06 14.3138 195.06C16.9001 195.06 19.1168 194.074 20.9641 192.104L24.4124 195.675C21.8262 198.508 18.3779 199.986 13.8212 199.986ZM31.8015 174.493H37.7129L32.6636 199.493H26.8754L31.8015 174.493ZM71.8262 174.493L66.9001 199.493H61.3582L64.3138 184.592L54.8311 196.907H52.2449L47.0725 184.469L43.9936 199.493H38.5749L43.6242 174.493H48.304L54.5848 190.01L66.9001 174.493H71.8262ZM90.6685 194.198H78.969L75.6439 199.493H69.4863L85.7424 174.493H91.4074L97.5651 199.493H91.7769L90.6685 194.198ZM89.6833 189.764L87.5897 180.035L81.6784 189.764H89.6833ZM128.23 174.493L123.181 199.493H118.501L109.141 183.853L105.939 199.493H100.274L105.201 174.493H110.003L119.363 190.134L122.565 174.493H128.23ZM148.673 186.562H153.969L151.999 196.907C150.644 197.892 149.166 198.631 147.565 199.124C145.841 199.74 144.117 199.986 142.393 199.986C139.806 199.986 137.713 199.493 135.742 198.631C133.895 197.646 132.54 196.414 131.432 194.813C130.447 193.089 129.954 191.242 129.954 189.025C129.954 186.193 130.57 183.607 131.925 181.39C133.279 179.05 135.127 177.326 137.467 175.971C139.93 174.616 142.639 174.001 145.718 174.001C148.058 174.001 150.151 174.37 151.875 175.109C153.723 175.848 155.077 176.956 156.186 178.434L151.999 181.759C151.136 180.774 150.274 180.035 149.166 179.666C148.181 179.173 146.949 178.927 145.471 178.927C143.501 178.927 141.9 179.419 140.422 180.281C138.944 181.143 137.836 182.252 136.974 183.73C136.235 185.208 135.866 186.808 135.866 188.656C135.866 190.626 136.481 192.227 137.713 193.336C138.944 194.444 140.792 195.06 143.132 195.06C144.609 195.06 145.964 194.69 147.319 194.074L148.673 186.562ZM176.383 186.562H181.678L179.585 196.907C178.353 197.892 176.875 198.631 175.151 199.124C173.55 199.74 171.703 199.986 169.979 199.986C167.516 199.986 165.299 199.493 163.452 198.631C161.604 197.646 160.127 196.414 159.141 194.813C158.033 193.089 157.54 191.242 157.54 189.025C157.54 186.193 158.279 183.607 159.511 181.39C160.866 179.05 162.713 177.326 165.053 175.971C167.516 174.616 170.225 174.001 173.304 174.001C175.767 174.001 177.737 174.37 179.585 175.109C181.309 175.848 182.664 176.956 183.772 178.434L179.585 181.759C178.846 180.774 177.861 180.035 176.752 179.666C175.767 179.173 174.536 178.927 173.058 178.927C171.21 178.927 169.486 179.419 168.008 180.281C166.531 181.143 165.422 182.252 164.683 183.73C163.821 185.208 163.452 186.808 163.452 188.656C163.452 190.626 164.068 192.227 165.299 193.336C166.531 194.444 168.378 195.06 170.718 195.06C172.196 195.06 173.55 194.69 174.905 194.074L176.383 186.562ZM189.437 174.493H195.225L190.299 199.493H184.388L189.437 174.493ZM204.954 199.986C202.861 199.986 201.013 199.74 199.166 199.124C197.442 198.631 195.964 198.015 194.856 197.153L197.196 192.72C198.304 193.459 199.659 194.198 201.013 194.567C202.491 195.06 203.969 195.306 205.447 195.306C207.048 195.306 208.279 195.06 209.265 194.567C210.25 193.951 210.619 193.212 210.619 192.35C210.619 191.611 210.25 190.996 209.511 190.626C208.772 190.257 207.664 189.887 206.063 189.395C204.338 188.902 203.107 188.409 201.999 188.04C201.013 187.547 200.151 186.932 199.412 186.07C198.55 185.084 198.181 183.976 198.181 182.498C198.181 180.774 198.673 179.296 199.659 178.065C200.644 176.71 201.875 175.725 203.6 175.109C205.447 174.37 207.417 174.001 209.634 174.001C211.358 174.001 212.959 174.247 214.437 174.616C216.038 174.986 217.27 175.478 218.378 176.217L216.161 180.651C215.299 179.912 214.191 179.542 213.082 179.173C211.851 178.804 210.619 178.68 209.388 178.68C207.664 178.68 206.432 178.927 205.447 179.542C204.462 180.158 204.092 180.897 204.092 181.759C204.092 182.252 204.215 182.744 204.585 183.114C205.077 183.483 205.57 183.853 206.186 183.976C206.802 184.222 207.664 184.469 208.772 184.838C210.373 185.208 211.728 185.7 212.713 186.193C213.821 186.562 214.683 187.178 215.422 188.04C216.038 188.902 216.407 190.01 216.407 191.488C216.407 193.089 216.038 194.69 215.053 195.922C214.068 197.153 212.713 198.139 210.989 198.877C209.265 199.616 207.171 199.986 204.954 199.986ZM234.141 174.493H240.053L235.003 199.493H229.092L234.141 174.493ZM249.659 199.986C247.688 199.986 245.718 199.74 243.994 199.124C242.146 198.631 240.669 198.015 239.56 197.153L241.9 192.72C243.132 193.459 244.363 194.198 245.841 194.567C247.196 195.06 248.673 195.306 250.151 195.306C251.752 195.306 253.107 195.06 253.969 194.567C254.954 193.951 255.447 193.212 255.447 192.35C255.447 191.611 255.077 190.996 254.338 190.626C253.6 190.257 252.368 189.887 250.767 189.395C249.166 188.902 247.811 188.409 246.826 188.04C245.718 187.547 244.856 186.932 244.117 186.07C243.378 185.084 243.008 183.976 243.008 182.498C243.008 180.774 243.501 179.296 244.363 178.065C245.348 176.71 246.703 175.725 248.427 175.109C250.151 174.37 252.122 174.001 254.462 174.001C256.186 174.001 257.787 174.247 259.265 174.616C260.742 174.986 261.974 175.478 263.082 176.217L260.866 180.651C260.003 179.912 258.895 179.542 257.787 179.173C256.555 178.804 255.324 178.68 254.092 178.68C252.491 178.68 251.136 178.927 250.151 179.542C249.289 180.158 248.797 180.897 248.797 181.759C248.797 182.252 248.92 182.744 249.412 183.114C249.782 183.483 250.274 183.853 250.89 183.976C251.506 184.222 252.368 184.469 253.476 184.838C255.077 185.208 256.432 185.7 257.417 186.193C258.526 186.562 259.388 187.178 260.127 188.04C260.866 188.902 261.235 190.01 261.235 191.488C261.235 193.089 260.742 194.69 259.757 195.922C258.772 197.153 257.417 198.139 255.693 198.877C253.969 199.616 251.999 199.986 249.659 199.986ZM268.747 174.493H274.659L270.471 194.813H283.033L282.171 199.493H263.698L268.747 174.493ZM303.476 194.198H291.777L288.452 199.493H282.294L298.55 174.493H304.215L310.373 199.493H304.585L303.476 194.198ZM302.491 189.764L300.398 180.035L294.486 189.764H302.491ZM346.334 174.493L341.284 199.493H335.866L338.821 184.592L329.215 196.907H326.629L321.457 184.469L318.501 199.493H313.082L318.008 174.493H322.811L329.092 190.01L341.284 174.493H346.334ZM352.245 174.493H358.033L353.107 199.493H347.196L352.245 174.493ZM372.196 199.986C369.609 199.986 367.516 199.493 365.545 198.631C363.698 197.646 362.343 196.414 361.235 194.813C360.25 193.089 359.757 191.242 359.757 189.025C359.757 186.193 360.373 183.607 361.728 181.39C363.082 179.05 364.806 177.326 367.269 175.971C369.609 174.616 372.319 174.001 375.398 174.001C377.614 174.001 379.585 174.37 381.309 175.109C383.033 175.971 384.388 177.079 385.25 178.434L381.063 181.882C379.708 179.912 377.614 178.927 374.905 178.927C373.181 178.927 371.457 179.419 370.102 180.281C368.624 181.143 367.639 182.252 366.777 183.73C366.038 185.208 365.669 186.932 365.669 188.656C365.669 190.626 366.284 192.227 367.516 193.336C368.747 194.444 370.471 195.06 372.688 195.06C375.274 195.06 377.491 194.074 379.338 192.104L382.787 195.675C380.324 198.508 376.752 199.986 372.196 199.986ZM408.526 199.986C406.063 199.986 403.846 199.493 401.999 198.631C400.151 197.646 398.673 196.414 397.688 194.813C396.703 193.089 396.21 191.242 396.21 189.025C396.21 186.193 396.826 183.607 398.181 181.39C399.412 179.05 401.26 177.326 403.6 175.971C405.939 174.616 408.649 174.001 411.728 174.001C413.944 174.001 416.038 174.37 417.639 175.109C419.363 175.971 420.718 177.079 421.58 178.434L417.393 181.882C416.038 179.912 414.068 178.927 411.358 178.927C409.511 178.927 407.91 179.419 406.432 180.281C405.077 181.143 403.969 182.252 403.23 183.73C402.491 185.208 401.999 186.932 401.999 188.656C401.999 190.626 402.614 192.227 403.846 193.336C405.077 194.444 406.802 195.06 409.018 195.06C411.728 195.06 413.944 194.074 415.669 192.104L419.117 195.675C416.654 198.508 413.205 199.986 408.526 199.986ZM446.703 182.252C446.703 184.592 446.087 186.562 444.733 188.286C443.501 189.887 441.777 191.119 439.56 191.735L443.87 199.493H437.713L433.772 192.474H428.846L427.491 199.493H421.58L426.629 174.493H436.851C439.93 174.493 442.393 175.109 444.117 176.464C445.841 177.818 446.703 179.789 446.703 182.252ZM434.757 187.917C436.604 187.917 438.205 187.424 439.191 186.562C440.299 185.7 440.792 184.469 440.792 182.744C440.792 181.513 440.422 180.651 439.56 180.035C438.821 179.419 437.59 179.173 436.112 179.173H431.555L429.831 187.917H434.757ZM457.787 179.05L456.802 184.592H468.378L467.516 189.025H455.816L454.708 194.813H468.378L467.393 199.493H447.935L452.984 174.493H471.949L470.964 179.05H457.787ZM489.806 194.198H478.107L474.905 199.493H468.747L484.88 174.493H490.669L496.826 199.493H491.038L489.806 194.198ZM488.821 189.764L486.728 180.035L480.816 189.764H488.821ZM507.417 179.173H499.412L500.398 174.493H522.196L521.21 179.173H513.205L509.141 199.493H503.353L507.417 179.173ZM525.274 174.493H531.186L526.136 199.493H520.348L525.274 174.493ZM560.989 174.493L545.225 199.493H539.437L533.649 174.493H539.683L543.624 192.35L555.077 174.493H560.989ZM568.008 179.05L566.9 184.592H578.476L577.614 189.025H565.915L564.806 194.813H578.476L577.491 199.493H558.156L563.082 174.493H582.048L581.063 179.05H568.008ZM617.269 182.252C617.269 184.592 616.654 186.562 615.422 188.286C614.191 189.887 612.343 191.119 610.127 191.735L614.56 199.493H608.402L604.462 192.474H599.535L598.181 199.493H592.269L597.319 174.493H607.54C610.619 174.493 613.082 175.109 614.683 176.464C616.407 177.818 617.269 179.789 617.269 182.252ZM605.324 187.917C607.294 187.917 608.772 187.424 609.88 186.562C610.866 185.7 611.481 184.469 611.481 182.744C611.481 181.513 610.989 180.651 610.25 180.035C609.388 179.419 608.279 179.173 606.802 179.173H602.122L600.398 187.917H605.324ZM631.555 199.986C629.092 199.986 626.875 199.493 625.151 198.631C623.304 197.646 621.826 196.414 620.841 194.813C619.856 193.089 619.363 191.242 619.363 189.025C619.363 186.193 620.102 183.607 621.334 181.39C622.688 179.05 624.535 177.326 626.875 175.971C629.215 174.616 631.925 174.001 634.88 174.001C637.467 174.001 639.56 174.493 641.407 175.355C643.255 176.341 644.733 177.572 645.595 179.173C646.58 180.897 647.072 182.744 647.072 184.961C647.072 187.794 646.457 190.257 645.225 192.597C643.87 194.813 642.023 196.661 639.683 198.015C637.343 199.247 634.634 199.986 631.555 199.986ZM632.171 195.06C633.895 195.06 635.619 194.567 636.974 193.705C638.329 192.843 639.437 191.611 640.176 190.134C640.915 188.656 641.284 187.055 641.284 185.208C641.284 183.36 640.668 181.759 639.437 180.651C638.205 179.542 636.604 178.927 634.388 178.927C632.54 178.927 630.939 179.419 629.585 180.281C628.23 181.143 627.122 182.375 626.383 183.853C625.644 185.331 625.274 186.932 625.274 188.779C625.274 190.626 625.89 192.227 627.122 193.336C628.23 194.444 629.954 195.06 632.171 195.06ZM661.851 199.986C659.388 199.986 657.171 199.493 655.324 198.631C653.476 197.646 652.122 196.414 651.136 194.813C650.151 193.089 649.659 191.242 649.659 189.025C649.659 186.193 650.274 183.607 651.629 181.39C652.861 179.05 654.708 177.326 657.048 175.971C659.388 174.616 662.097 174.001 665.176 174.001C667.639 174.001 669.856 174.493 671.703 175.355C673.55 176.341 674.905 177.572 675.89 179.173C676.875 180.897 677.368 182.744 677.368 184.961C677.368 187.794 676.752 190.257 675.398 192.597C674.043 194.813 672.319 196.661 669.979 198.015C667.516 199.247 664.93 199.986 661.851 199.986ZM662.343 195.06C664.191 195.06 665.792 194.567 667.146 193.705C668.624 192.843 669.609 191.611 670.348 190.134C671.087 188.656 671.457 187.055 671.457 185.208C671.457 183.36 670.841 181.759 669.733 180.651C668.501 179.542 666.777 178.927 664.683 178.927C662.836 178.927 661.235 179.419 659.757 180.281C658.402 181.143 657.294 182.375 656.555 183.853C655.816 185.331 655.447 186.932 655.447 188.779C655.447 190.626 656.063 192.227 657.294 193.336C658.526 194.444 660.127 195.06 662.343 195.06ZM712.343 174.493L707.294 199.493H701.875L704.831 184.592L695.225 196.907H692.639L687.467 184.469L684.511 199.493H679.092L684.141 174.493H688.821L695.102 190.01L707.294 174.493H712.343Z" fill="#332C2B"/>
<path d="M723.135 52.8185C723.135 23.8776 701.953 6.88257 665.007 6.88257H602.199L574.244 146.784H621.411L628.431 111.686H640.007L659.712 146.784H708.726L685.327 106.021C709.096 97.0304 723.135 77.8185 723.135 52.8185ZM675.352 57.4983C675.352 69.1978 667.717 76.0944 654.786 76.0944H635.327L641.978 43.2126H657.741C668.579 43.2126 675.352 47.3998 675.352 57.4983Z" fill="#332C2B"/>
<path d="M414.628 6.88257L364.135 88.4097L346.648 6.88257H298.249L329.529 146.784H375.835L463.027 6.88257H414.628Z" fill="#332C2B"/>
<path d="M188.427 146.784H298.772L306.161 110.208H242.984L263.674 6.88257H216.383L188.427 146.784Z" fill="#332C2B"/>
<path d="M131.051 146.784H178.218L206.174 6.88257H159.006L131.051 146.784Z" fill="#332C2B"/>
<path d="M60.5911 149.985C104.187 149.985 131.281 129.049 131.281 97.8918C131.281 54.6652 64.532 64.3943 64.532 49.0002C64.532 44.3204 71.4286 39.6406 85.2217 39.6406C98.7685 39.6406 112.315 43.0889 123.522 50.1086L140.517 15.6258C127.586 7.86718 108.99 3.67999 88.1774 3.67999C43.9655 3.67999 17.3645 24.4928 17.3645 56.2662C17.3645 99.6159 83.9902 90.9953 83.9902 105.774C83.9902 110.823 77.5862 114.025 65.3941 114.025C49.7537 114.025 33.7438 110.084 18.2266 101.094L0 135.823C13.4236 144.074 35.5911 149.985 60.5911 149.985Z" fill="#332C2B"/>
<path fill-rule="evenodd" clip-rule="evenodd" d="M463.284 74.4942C469.688 74.9868 480.526 73.3858 486.56 72.2774C490.255 71.5385 493.334 70.7996 496.905 69.6912C502.201 68.0902 501.339 68.5828 503.678 64.0262C508.112 55.0361 518.703 41.8587 527.94 38.5336C536.807 35.3316 550.846 41.8587 528.432 61.5631C520.304 68.706 508.235 74.8636 495.304 78.3119C481.265 82.1296 465.378 83.238 449.861 82.2528C423.383 80.5287 414.27 74.9868 407.989 74.1247C396.289 72.6469 398.26 84.4696 422.274 96.1691C434.836 102.45 444.688 105.652 459.097 108.977C460.206 123.878 462.669 131.883 470.181 140.381C475.723 146.662 486.683 152.942 498.999 154.051C511.56 155.159 524.122 151.095 532.373 145.43C545.797 136.071 546.905 120.8 541.856 117.967C536.93 116.859 533.851 119.938 529.787 121.662C517.718 126.834 499.861 130.406 500.476 111.071C503.678 109.346 515.008 107.006 519.565 105.282C538.038 98.509 551.585 90.2577 564.762 77.3267C578.925 63.4104 594.319 29.6666 573.26 9.3464C546.043 -16.8851 471.782 14.3957 463.284 74.4942Z" fill="#E95225"/>
</svg>
