<svg width="234" height="234" viewBox="0 0 234 234" fill="none" xmlns="http://www.w3.org/2000/svg">
<circle cx="117" cy="117" r="117" fill="#332C2B"/>
<path fill-rule="evenodd" clip-rule="evenodd" d="M82.2521 114.494C88.6561 114.987 99.4935 113.386 105.528 112.277C109.223 111.539 112.301 110.8 115.873 109.691C121.168 108.09 120.306 108.583 122.646 104.026C127.08 95.0361 137.671 81.8587 146.907 78.5336C155.774 75.3316 169.814 81.8587 147.4 101.563C139.272 108.706 127.203 114.864 114.272 118.312C100.232 122.13 84.3457 123.238 68.8285 122.253C42.3506 120.529 33.2373 114.987 26.9566 114.125C15.257 112.647 17.2275 124.47 41.2423 136.169C53.8038 142.45 63.6561 145.652 78.0649 148.977C79.1733 163.878 81.6363 171.883 89.1487 180.381C94.6905 186.662 105.651 192.942 117.966 194.051C130.528 195.159 143.09 191.095 151.341 185.43C164.764 176.071 165.873 160.8 160.824 157.967C155.897 156.859 152.819 159.938 148.755 161.662C136.686 166.834 118.828 170.406 119.444 151.071C122.646 149.346 133.976 147.006 138.533 145.282C157.006 138.509 170.553 130.258 183.73 117.327C197.893 103.41 213.287 69.6666 192.227 49.3464C165.011 23.1149 90.7496 54.3957 82.2521 114.494Z" fill="#E95225"/>
</svg>
