<svg width="250" height="250" viewBox="0 0 250 250" fill="none" xmlns="http://www.w3.org/2000/svg">
<circle cx="125" cy="125" r="125" fill="#FFCDBE"/>
<path fill-rule="evenodd" clip-rule="evenodd" d="M86.2644 123.136C92.0524 123.58 101.847 122.138 107.301 121.139C110.641 120.473 113.423 119.807 116.651 118.808C121.437 117.365 120.658 117.809 122.773 113.702C126.78 105.6 136.353 93.7243 144.701 90.7276C152.715 87.8419 165.404 93.7243 145.146 111.483C137.8 117.92 126.892 123.469 115.204 126.577C102.515 130.018 88.1566 131.017 74.1319 130.129C50.2008 128.575 41.9641 123.58 36.2874 122.803C25.7132 121.472 27.4942 132.127 49.1991 142.67C60.5524 148.331 69.457 151.217 82.4799 154.213C83.4817 167.643 85.7078 174.857 92.4976 182.515C97.5064 188.176 107.413 193.836 118.543 194.835C129.897 195.834 141.25 192.172 148.708 187.066C160.84 178.631 161.842 164.868 157.278 162.315C152.826 161.317 150.043 164.091 146.37 165.645C135.462 170.307 119.323 173.525 119.879 156.1C122.773 154.546 133.013 152.437 137.132 150.884C153.828 144.779 166.072 137.343 177.982 125.689C190.782 113.147 204.695 82.7364 185.662 64.4233C161.063 40.7826 93.9446 68.9738 86.2644 123.136Z" fill="#E95225"/>
</svg>
